# 
# Generated by Sweet Home 3D - Fri Aug 28 19:11:47 WIT 2015
# http://www.sweethome3d.com/
# 
mtllib atap.mtl
g wall_1_1
usemtl wall_1_1
v 1264.5532 755.62 1393.6218
v 398.74765 755.62 1563.6218
v 400.0 755.62 1570.0
v 1265.8055 755.62 1400.0
vn 0.0 -1.0 0.0
f 4//1 3//1 2//1
f 4//1 2//1 1//1
g wall_1_2
usemtl wall_1_1
v 401.25235 755.62 1576.3782
v 1267.0579 755.62 1406.3782
f 6//1 5//1 3//1
f 6//1 3//1 4//1
g wall_1_3
usemtl wall_1_1
v 398.74765 1011.45996 1563.6218
v 1264.5532 1011.45996 1393.6218
v 400.0 1011.45996 1570.0
v 1265.8055 1011.45996 1400.0
vn -0.19267006 0.0 -0.9812636
vn -0.9812635 0.0 0.19267039
vn 0.9812644 0.0 -0.19266586
vn 0.0 0.0 0.0
f 1//2 2//2 7//2 8//2
f 2//3 3//3 9//3 7//3
f 4//4 1//4 8//4 10//4
g wall_1_4
usemtl wall_1_1
v 401.25235 1011.45996 1576.3782
v 1267.0579 1011.45996 1406.3782
vn 0.19267006 0.0 0.9812636
f 3//3 5//3 11//3 9//3
f 5//6 6//6 12//6 11//6
f 6//4 4//4 10//4 12//4
g wall_1_5
usemtl wall_1_1
vn 0.0 1.0 0.0
f 8//7 7//7 9//7
f 8//7 9//7 10//7
g wall_1_6
usemtl wall_1_1
f 10//7 9//7 11//7
f 10//7 11//7 12//7
